<svg height="299.9936" version="1.1" width="407.6" xmlns="http://www.w3.org/2000/svg" style="overflow: hidden; position: relative; left: -0.703125px;" viewBox="-8 -1 407.6 299.9936" preserveAspectRatio="xMinYMin"><rect x="-2000" y="-1472" width="5000" height="3680" r="0" rx="0" ry="0" fill="#ffffff" stroke="none" transform="matrix(0.4076,0,0,0.4076,0,0)" stroke-width="2.453385672227674" style="-webkit-tap-highlight-color: rgba(0, 0, 0, 0); fill-opacity: 0;" fill-opacity="0"/><path fill="#88a4bc" stroke="#ffffff" d="M823.7,327.4L824.8000000000001,331.79999999999995L827.8000000000001,334.49999999999994L828.7,336.59999999999997L829.8000000000001,338.29999999999995L832.0000000000001,339.29999999999995L834.4000000000001,339.79999999999995L836.1000000000001,339.9L835.3000000000002,341.7L834.6000000000001,342.8L834.3000000000002,343.90000000000003L834.7000000000002,345.50000000000006L835.7000000000002,346.40000000000003L837.2000000000002,346.8L838.3000000000002,347.7L838.2000000000002,350.2L837.4000000000002,351.59999999999997L834.5000000000002,354.4L833.4000000000002,356L833.1000000000003,357.5L833.0000000000002,359.4L832.5000000000002,361.09999999999997L831.5000000000002,361.99999999999994L828.7000000000003,363.69999999999993L827.8000000000003,366.3999999999999L828.1000000000003,369.49999999999994L829.9000000000002,376.19999999999993L830.2000000000002,379.29999999999995L830.0000000000001,385.9L831.9000000000001,386.29999999999995L845.6000000000001,391.4L846.6000000000001,393.4L846.0000000000001,395.29999999999995L843.8000000000001,396.09999999999997L845.0000000000001,398.2L846.5000000000001,400.09999999999997L848.3000000000001,401.59999999999997L854.1,403.79999999999995L856.2,405.19999999999993L857.6,407.3999999999999L863,420.19999999999993L863.4,423.5999999999999L862.3,429.69999999999993L859,441.3999999999999L859,447.69999999999993L860.4,451.69999999999993L862.8,454.0999999999999L865.5999999999999,456.19999999999993L868.1999999999999,459.29999999999995L869.0999999999999,462.19999999999993L868.9999999999999,465.29999999999995L868.1999999999999,471.4L865.8,478.2L860.9,483.3L848.3,490.40000000000003L850.3,492.20000000000005L852.3,495.20000000000005L855.3,501.1L857.1999999999999,506.6L860.4999999999999,511.70000000000005L863.1999999999999,514.8000000000001L871.6999999999999,521.0000000000001L872.5999999999999,522.1000000000001L873.8999999999999,524.3000000000002L874.7999999999998,525.3000000000002L876.2999999999998,526.1000000000001L877.6999999999998,526.3000000000002L878.8999999999999,526.8000000000002L879.8999999999999,528.5000000000002L879.5999999999999,531.2000000000003L877.4999999999999,539.4000000000003L877.7999999999998,541.0000000000003L879.0999999999998,541.4000000000003L882.9999999999998,543.3000000000003L884.1999999999998,544.2000000000003L884.6999999999998,545.3000000000003L885.5999999999998,548.2000000000003L886.2999999999998,549.3000000000003L888.0999999999998,550.7000000000003L888.8999999999997,550.8000000000003L889.6999999999997,550.0000000000003L895.8999999999997,545.2000000000004L896.2999999999997,542.3000000000004L897.0999999999997,539.2000000000004L898.5999999999997,536.7000000000004L900.8999999999996,535.5000000000003L902.9999999999997,535.8000000000003L904.0999999999997,537.0000000000003L904.8999999999996,538.5000000000003L906.3999999999996,539.6000000000004L907.7999999999996,539.8000000000004L910.6999999999996,539.2000000000004L914.3999999999996,539.1000000000004L915.0999999999997,539.7000000000004L914.8999999999996,541.9000000000004L915.2999999999996,543.4000000000004L916.8999999999996,543.6000000000005L918.6999999999996,543.1000000000005L919.7999999999996,542.6000000000005L919.7999999999996,545.9000000000004L920.8999999999996,548.8000000000004L924.4999999999997,553.9000000000004L927.8999999999996,556.9000000000004L928.4999999999997,558.4000000000004L928.2999999999996,560.0000000000005L926.3999999999996,562.8000000000004L925.7999999999996,564.4000000000004L926.2999999999996,567.1000000000005L927.6999999999996,569.0000000000005L929.3999999999996,570.6000000000005L930.7999999999996,572.6000000000005L930.8999999999996,577.9000000000004L931.5999999999997,580.4000000000004L934.1999999999997,581.0000000000005L936.2999999999997,582.2000000000005L937.9999999999998,583.5000000000005L939.8999999999997,584.7000000000005L942.2999999999997,585.3000000000005L943.7999999999997,585.9000000000005L943.6999999999997,587.0000000000006L942.8999999999997,588.1000000000006L942.5999999999998,589.0000000000006L944.5999999999998,592.0000000000006L945.3999999999997,593.8000000000005L945.9999999999998,594.8000000000005L946.5999999999998,595.3000000000005L947.8999999999997,595.9000000000005L947.5999999999998,596.5000000000006L946.7999999999998,597.2000000000006L946.2999999999998,597.8000000000006L946.2999999999998,599.1000000000006L945.9999999999999,602.0000000000006L945.5999999999999,603.5000000000006L947.8999999999999,604.0000000000006L949.5999999999999,603.3000000000005L950.5999999999999,601.5000000000006L950.9999999999999,598.9000000000005L952.1999999999999,600.2000000000005L952.9,601.8000000000005L953.1999999999999,603.5000000000006L953.5999999999999,607.4000000000005L953.0999999999999,608.3000000000005L952.0999999999999,608.9000000000005L950.8,610.0000000000006L950.1999999999999,610.0000000000006L949.3,609.5000000000006L948.1999999999999,609.1000000000006L947.1999999999999,609.6000000000006L947.0999999999999,610.6000000000006L947.8999999999999,611.4000000000005L948.6999999999998,612.2000000000005L948.9999999999998,613.0000000000005L948.3999999999997,614.5000000000005L947.5999999999998,616.1000000000005L946.9999999999998,617.6000000000005L947.4999999999998,620.1000000000005L947.2999999999997,620.7000000000005L946.7999999999997,621.4000000000005L946.4999999999998,622.2000000000005L946.4999999999998,623.1000000000005L947.0999999999998,623.5000000000005L947.7999999999998,623.6000000000005L948.1999999999998,623.7000000000005L948.3999999999999,623.9000000000005L948.8999999999999,624.6000000000006L949.4999999999999,625.6000000000006L949.9999999999999,626.9000000000005L950.2999999999998,628.5000000000006L950.4999999999999,630.3000000000005L950.0999999999999,631.9000000000005L949.0999999999999,633.0000000000006L949.0999999999999,633.7000000000006L950.6999999999999,636.5000000000006L950.9,637.9000000000005L949.6999999999999,639.9000000000005L947.6999999999999,640.2000000000005L945.6999999999999,640.9000000000005L944.1999999999999,644.9000000000005L942.9999999999999,645.7000000000005L942.0999999999999,646.8000000000005L942.3,649.0000000000006L942.8,649.4000000000005L943.9,649.8000000000005L945.1,650.6000000000005L945.8000000000001,652.2000000000005L945.9000000000001,653.8000000000005L945.1000000000001,658.5000000000006L945.2000000000002,660.1000000000006L945.6000000000001,661.2000000000006L945.7000000000002,662.3000000000006L945.4000000000002,664.0000000000007L942.3000000000002,665.4000000000007L941.3000000000002,666.4000000000007L942.9000000000002,667.0000000000007L944.0000000000002,667.7000000000007L945.7000000000003,670.7000000000007L946.9000000000003,671.7000000000007L946.8000000000003,670.6000000000007L947.6000000000003,669.0000000000007L948.8000000000003,668.5000000000007L949.7000000000003,671.0000000000007L950.0000000000002,672.2000000000007L950.9000000000002,674.7000000000007L951.2000000000002,676.1000000000007L952.4000000000002,674.2000000000007L952.7000000000002,673.4000000000008L954.5000000000001,676.0000000000008L954.2000000000002,679.5000000000008L953.2000000000002,683.5000000000008L953.0000000000001,687.5000000000008L948.9000000000001,687.3000000000008L939.2,683.8000000000008L934.2,683.3000000000008L921.5,684.3000000000008L915.4,685.4000000000008L904,689.7000000000007L898.4,690.6000000000007L886.4,690.1000000000007L883.3,689.4000000000007L874.4,685.7000000000006L874.1999999999999,685.4000000000007L873.9,685.3000000000006L872.9,685.3000000000006L872.3,685.5000000000007L870.5999999999999,686.7000000000007L864.9999999999999,689.8000000000008L862.9999999999999,690.2000000000007L859.8999999999999,689.8000000000008L850.9999999999999,686.9000000000008L847.2999999999998,687.0000000000008L844.6999999999998,688.3000000000008L839.7999999999998,692.8000000000008L834.2999999999998,695.8000000000008L809.3999999999999,702.4000000000008L806.9999999999999,701.1000000000008L802.7999999999998,694.7000000000008L800.1999999999998,692.8000000000009L793.7999999999998,690.4000000000009L790.6999999999998,689.7000000000008L788.0999999999998,689.6000000000008L785.5999999999998,690.1000000000008L782.7999999999998,691.2000000000008L778.4999999999999,693.6000000000008L777.2999999999998,693.9000000000008L777.1999999999998,694.0000000000008L775.0999999999998,693.9000000000008L774.4999999999998,693.3000000000008L774.3999999999997,692.3000000000008L773.5999999999998,690.8000000000008L769.4999999999998,686.2000000000007L766.9999999999998,684.2000000000007L764.1999999999998,683.0000000000007L761.0999999999998,682.7000000000007L751.5999999999998,683.2000000000007L748.4999999999998,682.8000000000008L747.6999999999998,681.6000000000007L746.9999999999998,680.1000000000007L744.6999999999998,678.9000000000007L740.2999999999998,678.6000000000007L738.8999999999999,678.1000000000007L737.2999999999998,676.6000000000007L736.9999999999999,675.3000000000008L737.2999999999998,674.3000000000008L737.2999999999998,673.7000000000007L733.6999999999998,670.5000000000007L727.8999999999999,667.5000000000007L722.4999999999999,667.5000000000007L720.0999999999999,673.6000000000007L719.5999999999999,676.5000000000007L717.8999999999999,678.0000000000007L715.4999999999999,678.1000000000007L712.7999999999998,677.1000000000007L709.9999999999999,677.4000000000007L707.3999999999999,677.2000000000006L705.1999999999998,676.0000000000006L703.4999999999998,673.5000000000006L702.8999999999997,670.6000000000006L703.3999999999997,668.1000000000006L705.5999999999998,663.0000000000006L706.1999999999998,660.4000000000005L706.2999999999998,657.3000000000005L705.6999999999998,654.5000000000006L703.7999999999998,652.4000000000005L701.4999999999999,652.1000000000006L698.9999999999999,652.5000000000006L696.2999999999998,652.6000000000006L693.5999999999998,651.2000000000006L692.1999999999998,652.9000000000007L691.0999999999998,652.1000000000007L690.0999999999998,652.0000000000007L688.9999999999998,652.1000000000007L687.6999999999998,652.1000000000007L685.8999999999999,652.7000000000007L685.2999999999998,652.8000000000008L684.5999999999998,652.5000000000008L683.1999999999998,650.9000000000008L682.3999999999999,650.5000000000008L681.2999999999998,650.6000000000008L678.7999999999998,651.3000000000009L677.4999999999999,651.5000000000009L676.1999999999999,651.3000000000009L674.4,650.1000000000008L673.1,649.8000000000009L671.8000000000001,649.9000000000009L667.4000000000001,650.8000000000009L666.7,651.1000000000008L666.4000000000001,651.5000000000008L665.9000000000001,651.9000000000008L665.1000000000001,651.9000000000008L664.4000000000001,651.7000000000007L663.1000000000001,650.7000000000007L662.4000000000001,650.5000000000007L662.0000000000001,650.3000000000006L655.3000000000001,648.5000000000007L607.6,646.8000000000006L555.2,646.5000000000007L516.8000000000001,646.4000000000007L502.9000000000001,646.3000000000006L450.6000000000001,646.1000000000006L438.7000000000001,646.0000000000006L398.2000000000001,645.9000000000005L391.0000000000001,645.8000000000005L386.8000000000001,646.5000000000006L383.0000000000001,648.2000000000006L374.4000000000001,654.4000000000007L365.4000000000001,658.6000000000007L357.6000000000001,664.3000000000008L357.1000000000001,664.7000000000007L319.9000000000001,682.2000000000007L314.80000000000007,683.2000000000007L289.30000000000007,681.7000000000007L287.9000000000001,681.6000000000007L276.2000000000001,682.5000000000007L273.3000000000001,681.9000000000007L264.10000000000014,678.8000000000006L258.8000000000001,678.4000000000007L247.70000000000013,680.3000000000006L246.70000000000013,680.8000000000006L246.10000000000014,681.3000000000006L245.40000000000015,681.5000000000007L244.10000000000014,681.3000000000006L241.00000000000014,680.1000000000006L239.40000000000015,679.8000000000006L237.80000000000015,680.1000000000006L227.60000000000016,685.6000000000006L215.80000000000015,692.1000000000006L211.30000000000015,693.9000000000005L203.90000000000015,693.9000000000005L196.20000000000016,695.9000000000005L193.50000000000017,696.0000000000006L173.50000000000017,694.6000000000006L168.00000000000017,696.0000000000006L164.70000000000016,698.3000000000005L163.70000000000016,696.4000000000005L163.00000000000017,694.4000000000005L162.40000000000018,691.3000000000005L161.40000000000018,690.3000000000005L159.2000000000002,688.7000000000005L155.80000000000018,685.4000000000005L154.30000000000018,683.4000000000005L153.7000000000002,681.5000000000006L153.7000000000002,675.2000000000006L154.0000000000002,673.8000000000006L155.4000000000002,672.5000000000007L155.8000000000002,671.1000000000007L156.9000000000002,669.5000000000007L164.20000000000022,665.1000000000007L167.4000000000002,665.0000000000007L172.0000000000002,665.4000000000007L176.9000000000002,662.3000000000006L178.5000000000002,661.0000000000007L179.4000000000002,659.7000000000007L180.0000000000002,658.5000000000007L181.0000000000002,657.0000000000007L186.6000000000002,652.9000000000007L189.30000000000018,656.1000000000007L191.40000000000018,661.8000000000008L193.50000000000017,663.1000000000007L193.60000000000016,660.7000000000007L195.10000000000016,658.9000000000008L197.70000000000016,658.2000000000007L200.60000000000016,658.8000000000008L205.50000000000017,661.6000000000007L210.00000000000017,662.9000000000007L214.90000000000018,665.2000000000006L217.40000000000018,665.4000000000007L220.30000000000018,664.0000000000007L223.90000000000018,659.6000000000007L226.50000000000017,658.2000000000007L229.90000000000018,658.3000000000008L232.90000000000018,659.4000000000008L235.80000000000018,659.7000000000007L239.2000000000002,657.6000000000007L240.90000000000018,656.9000000000007L242.00000000000017,658.2000000000006L242.90000000000018,660.1000000000006L243.7000000000002,661.2000000000006L255.2000000000002,656.9000000000007L257.9000000000002,656.3000000000006L261.4000000000002,656.1000000000006L263.7000000000002,655.4000000000005L265.6000000000002,654.0000000000006L267.8000000000002,652.9000000000005L271.00000000000017,653.0000000000006L273.6000000000002,654.4000000000005L277.50000000000017,657.5000000000006L279.90000000000015,659.4000000000005L281.10000000000014,660.8000000000005L282.8000000000001,661.1000000000005L292.3000000000001,661.2000000000005L293.2000000000001,661.9000000000005L295.1000000000001,663.9000000000005L295.80000000000007,664.3000000000005L297.1000000000001,664.2000000000005L300.9000000000001,663.2000000000005L302.6000000000001,662.2000000000005L304.2000000000001,660.2000000000005L306.3000000000001,659.0000000000005L309.40000000000015,660.3000000000004L310.20000000000016,659.6000000000004L311.20000000000016,659.2000000000004L312.10000000000014,659.1000000000004L314.10000000000014,660.6000000000004L315.0000000000001,660.5000000000003L315.8000000000001,660.1000000000004L316.60000000000014,660.3000000000004L317.70000000000016,661.7000000000004L318.70000000000016,664.2000000000004L319.50000000000017,665.4000000000004L320.50000000000017,666.3000000000004L321.50000000000017,666.9000000000004L322.90000000000015,667.3000000000004L324.60000000000014,667.3000000000004L326.3000000000001,667.0000000000005L333.10000000000014,664.2000000000005L335.8000000000001,661.4000000000005L340.3000000000001,655.5000000000006L342.0000000000001,654.3000000000005L343.5000000000001,653.5000000000006L344.60000000000014,652.4000000000005L345.0000000000001,650.4000000000005L344.10000000000014,649.4000000000005L342.5000000000001,648.7000000000005L341.60000000000014,647.9000000000005L342.90000000000015,646.7000000000005L341.40000000000015,643.3000000000005L340.10000000000014,638.7000000000005L339.60000000000014,633.9000000000005L340.90000000000015,630.2000000000005L342.60000000000014,629.1000000000005L344.70000000000016,629.1000000000005L346.90000000000015,629.2000000000005L348.90000000000015,629.0000000000005L351.00000000000017,628.1000000000005L352.40000000000015,627.0000000000005L353.3000000000001,625.7000000000005L354.0000000000001,623.9000000000005L357.0000000000001,626.8000000000005L359.8000000000001,627.6000000000005L361.7000000000001,626.0000000000005L362.0000000000001,621.8000000000004L359.7000000000001,624.2000000000004L357.6000000000001,624.1000000000004L355.30000000000007,623.2000000000004L353.00000000000006,622.8000000000004L350.70000000000005,623.8000000000004L347.1,626.5000000000005L344.40000000000003,627.1000000000005L342.90000000000003,627.1000000000005L340.70000000000005,627.4000000000004L338.70000000000005,628.4000000000004L337.80000000000007,630.7000000000004L337.80000000000007,639.5000000000003L339.50000000000006,645.1000000000004L339.80000000000007,646.7000000000004L339.9000000000001,649.2000000000004L339.7000000000001,650.4000000000004L339.3000000000001,651.4000000000004L335.7000000000001,654.5000000000005L334.6000000000001,656.0000000000005L327.2000000000001,662.8000000000004L325.2000000000001,664.0000000000005L323.4000000000001,664.1000000000005L321.9000000000001,663.4000000000004L320.6000000000001,662.3000000000004L321.50000000000006,657.8000000000004L317.00000000000006,655.7000000000004L306.50000000000006,654.0000000000003L299.40000000000003,658.6000000000004L296.8,659.2000000000004L296.3,658.7000000000004L295.6,657.6000000000004L294.6,656.6000000000004L292.8,656.1000000000004L291,656.4000000000003L288.5,657.8000000000003L286.7,658.2000000000003L285,657.7000000000003L282.8,656.5000000000002L279.1,654.0000000000002L278.90000000000003,653.3000000000002L279.1,652.2000000000002L279.20000000000005,651.2000000000002L278.6,650.8000000000002L276.70000000000005,650.6000000000001L275.70000000000005,650.3000000000002L275.00000000000006,649.9000000000002L274.1000000000001,648.6000000000003L272.00000000000006,644.6000000000003L271.50000000000006,644.1000000000003L270.80000000000007,643.8000000000003L270.30000000000007,643.3000000000003L269.70000000000005,640.1000000000003L268.90000000000003,638.3000000000003L268.00000000000006,638.3000000000003L268.00000000000006,639.5000000000003L267.80000000000007,640.1000000000004L266.20000000000005,643.2000000000004L265.50000000000006,644.2000000000004L265.00000000000006,649.3000000000004L260.90000000000003,652.0000000000005L254.80000000000004,653.0000000000005L253.30000000000004,653.7000000000005L250.20000000000005,655.7000000000005L249.30000000000004,656.1000000000005L247.80000000000004,655.9000000000004L244.20000000000005,655.0000000000005L238.60000000000005,655.0000000000005L236.90000000000006,655.4000000000004L234.10000000000005,656.6000000000005L232.60000000000005,657.0000000000005L230.80000000000004,657.0000000000005L226.00000000000003,656.1000000000005L224.40000000000003,656.4000000000004L222.30000000000004,657.8000000000004L221.00000000000003,658.2000000000004L220.50000000000003,658.9000000000004L219.80000000000004,660.5000000000005L218.80000000000004,662.2000000000005L217.40000000000003,663.2000000000005L211.40000000000003,661.2000000000005L206.50000000000003,658.4000000000005L204.20000000000002,656.5000000000006L203.20000000000002,654.5000000000006L202.70000000000002,654.1000000000006L201.3,653.7000000000006L199.9,653.0000000000006L199.20000000000002,652.0000000000006L199.50000000000003,650.5000000000006L200.40000000000003,649.1000000000006L201.70000000000005,648.2000000000006L203.20000000000005,647.8000000000006L203.20000000000005,646.7000000000006L201.00000000000006,646.6000000000006L199.50000000000006,645.5000000000006L198.70000000000005,643.7000000000006L198.20000000000005,641.5000000000006L197.20000000000005,654.0000000000006L196.10000000000005,654.0000000000006L194.10000000000005,651.4000000000005L188.70000000000005,646.7000000000005L188.00000000000006,643.7000000000005L186.30000000000007,645.1000000000005L185.20000000000007,646.8000000000005L183.80000000000007,648.2000000000005L181.50000000000006,648.8000000000005L179.70000000000005,648.4000000000005L178.50000000000006,647.4000000000005L177.90000000000006,645.8000000000005L178.00000000000006,643.7000000000005L180.10000000000005,639.7000000000005L183.10000000000005,636.8000000000005L185.00000000000006,633.3000000000005L184.10000000000005,628.0000000000006L183.40000000000006,632.1000000000006L183.10000000000005,633.3000000000006L182.30000000000004,634.6000000000006L181.60000000000005,635.2000000000006L180.90000000000006,635.7000000000006L178.00000000000006,638.4000000000007L176.70000000000005,640.0000000000007L176.10000000000005,641.9000000000007L175.90000000000006,645.1000000000007L177.00000000000006,650.5000000000007L176.70000000000005,653.0000000000007L172.20000000000005,654.9000000000007L165.80000000000004,660.3000000000006L160.80000000000004,662.1000000000006L158.10000000000005,660.4000000000005L156.90000000000006,656.5000000000006L156.70000000000007,651.4000000000005L157.50000000000009,646.0000000000006L159.8000000000001,640.7000000000006L163.6000000000001,637.7000000000006L168.8000000000001,639.5000000000006L169.00000000000009,637.2000000000006L166.9000000000001,635.6000000000006L163.9000000000001,635.0000000000006L161.3000000000001,635.9000000000005L158.2000000000001,639.6000000000006L156.5000000000001,640.8000000000006L154.7000000000001,640.4000000000007L155.5000000000001,639.2000000000006L155.80000000000013,637.9000000000007L155.5000000000001,636.6000000000007L154.7000000000001,635.3000000000008L157.9000000000001,630.8000000000008L158.50000000000009,628.6000000000007L157.8000000000001,625.9000000000007L156.7000000000001,625.9000000000007L156.0000000000001,627.6000000000007L155.0000000000001,628.3000000000008L154.1000000000001,627.8000000000008L153.7000000000001,625.5000000000008L154.0000000000001,623.7000000000008L154.90000000000012,621.7000000000008L160.20000000000013,613.8000000000009L160.70000000000013,611.9000000000009L160.60000000000014,610.0000000000009L159.90000000000015,606.4000000000009L159.70000000000016,604.7000000000008L160.00000000000017,601.5000000000008L161.50000000000017,595.2000000000008L161.80000000000018,591.2000000000008L161.6000000000002,588.7000000000008L161.0000000000002,587.5000000000008L161.2000000000002,584.0000000000008L161.7000000000002,582.3000000000008L162.6000000000002,581.0000000000008L165.0000000000002,578.7000000000008L165.4000000000002,577.3000000000009L167.6000000000002,573.6000000000008L172.80000000000018,572.4000000000008L179.2000000000002,572.5000000000008L203.5000000000002,572.7000000000008L226.0000000000002,572.9000000000009L258.6000000000002,573.2000000000008L277.9000000000002,573.4000000000009L287.3000000000002,573.4000000000009L291.3000000000002,573.5000000000009L296.8000000000002,573.5000000000009L297.8000000000002,572.8000000000009L298.1000000000002,562.0000000000009L298.1000000000002,559.6000000000009L298.4000000000002,548.9000000000009L299.0000000000002,546.7000000000008L300.7000000000002,545.8000000000009L311.0000000000002,544.8000000000009L317.60000000000025,542.7000000000008L319.5000000000002,542.6000000000008L329.4000000000002,543.6000000000008L331.8000000000002,543.4000000000008L336.3000000000002,541.9000000000008L339.70000000000016,540.0000000000008L343.10000000000014,538.7000000000008L347.70000000000016,538.9000000000009L363.8000000000002,542.3000000000009L369.3000000000002,542.3000000000009L374.1000000000002,541.4000000000009L378.9000000000002,539.6000000000009L383.2000000000002,536.800000000001L386.2000000000002,532.800000000001L387.1000000000002,528.6000000000009L387.7000000000002,519.200000000001L389.7000000000002,515.900000000001L393.1000000000002,512.400000000001L396.1000000000002,509.200000000001L399.50000000000017,507.80000000000103L403.6000000000002,510.500000000001L410.2000000000002,516.7000000000011L417.5000000000002,522.100000000001L417.60000000000025,522.100000000001L427.30000000000024,527.100000000001L432.2000000000002,528.400000000001L437.9000000000002,528.900000000001L440.1000000000002,529.500000000001L445.1000000000002,532.600000000001L447.8000000000002,533.400000000001L450.8000000000002,534.000000000001L452.4000000000002,535.000000000001L455.3000000000002,539.2000000000011L459.50000000000017,542.9000000000011L464.40000000000015,545.0000000000011L469.8000000000001,545.6000000000012L475.3000000000001,545.0000000000011L480.0000000000001,543.8000000000011L481.7000000000001,544.4000000000011L485.9000000000001,548.3000000000011L487.30000000000007,549.600000000001L489.30000000000007,550.7000000000011L491.4000000000001,551.3000000000011L496.1000000000001,551.5000000000011L498.00000000000006,552.1000000000012L499.70000000000005,553.8000000000012L500.80000000000007,555.3000000000012L502.20000000000005,556.6000000000012L503.80000000000007,557.7000000000012L509.1000000000001,560.5000000000011L513.0000000000001,561.6000000000012L517.0000000000001,561.9000000000011L525.4000000000001,561.1000000000012L533.4000000000001,562.7000000000012L537.7,562.5000000000011L540.9000000000001,560.9000000000011L548.0000000000001,555.5000000000011L550.2000000000002,554.5000000000011L552.8000000000002,554.6000000000012L559.1000000000001,552.3000000000012L565.0000000000001,552.2000000000012L571.0000000000001,550.6000000000012L582.1000000000001,549.6000000000012L589.4000000000001,546.4000000000011L593.6000000000001,540.0000000000011L594.2000000000002,532.2000000000012L590.7000000000002,525.0000000000011L589.2000000000002,523.8000000000011L585.8000000000002,521.8000000000011L584.8000000000002,520.9000000000011L584.5000000000002,520.6000000000012L583.7000000000003,519.4000000000011L582.8000000000003,516.5000000000011L582.0000000000003,515.2000000000012L579.5000000000003,513.1000000000012L576.0000000000003,511.30000000000115L572.2000000000004,510.00000000000114L569.1000000000004,509.50000000000114L567.2000000000004,509.80000000000115L564.2000000000004,511.60000000000116L562.4000000000004,512.3000000000012L560.9000000000004,512.6000000000012L558.3000000000004,512.4000000000011L556.7000000000004,512.4000000000011L553.7000000000004,513.2000000000011L546.9000000000004,516.7000000000011L538.4000000000004,518.600000000001L535.6000000000005,519.8000000000011L527.4000000000004,525.0000000000011L518.7000000000004,528.1000000000012L516.2000000000004,528.7000000000012L513.5000000000003,528.3000000000012L509.9000000000003,526.7000000000012L499.20000000000033,518.9000000000012L498.00000000000034,518.1000000000013L496.50000000000034,516.4000000000012L495.60000000000036,514.4000000000012L493.60000000000036,507.8000000000012L492.2000000000004,504.9000000000012L490.2000000000004,502.4000000000012L487.4000000000004,500.1000000000012L481.0000000000004,497.1000000000012L474.9000000000004,496.6000000000012L469.0000000000004,498.3000000000012L459.9000000000004,503.4000000000012L458.10000000000036,503.9000000000012L456.00000000000034,503.20000000000124L449.9000000000003,499.50000000000125L448.9000000000003,498.30000000000126L446.00000000000034,488.50000000000125L444.70000000000033,485.70000000000124L442.9000000000003,483.1000000000012L440.4000000000003,481.1000000000012L437.70000000000033,478.9000000000012L432.30000000000035,477.00000000000125L417.4000000000004,476.4000000000012L408.60000000000036,473.00000000000125L405.4000000000004,472.9000000000012L394.60000000000036,476.8000000000012L383.50000000000034,484.0000000000012L380.4000000000003,484.7000000000012L379.1000000000003,483.8000000000012L376.3000000000003,480.0000000000012L374.9000000000003,478.7000000000012L368.50000000000034,477.60000000000116L361.70000000000033,480.2000000000012L355.4000000000003,484.8000000000012L350.8000000000003,489.8000000000012L349.2000000000003,492.4000000000012L347.60000000000025,495.6000000000012L346.5000000000002,498.9000000000012L346.30000000000024,500.00000000000125L345.90000000000026,502.00000000000125L345.7000000000003,508.1000000000013L343.3000000000003,508.9000000000013L336.1000000000003,508.80000000000126L326.9000000000003,508.80000000000126L317.8000000000003,508.80000000000126L308.6000000000003,508.70000000000124L299.4000000000003,508.70000000000124L290.3000000000003,508.70000000000124L281.1000000000003,508.6000000000012L271.9000000000003,508.6000000000012L262.8000000000003,508.5000000000012L259.6000000000003,508.5000000000012L253.6000000000003,508.5000000000012L244.40000000000032,508.5000000000012L235.30000000000032,508.5000000000012L226.10000000000034,508.40000000000117L216.90000000000035,508.40000000000117L207.70000000000036,508.30000000000115L198.60000000000036,508.30000000000115L189.30000000000035,508.30000000000115L189.30000000000035,508.2000000000011L187.90000000000035,506.00000000000114L187.10000000000034,504.4000000000011L187.20000000000033,500.2000000000011L189.70000000000033,497.80000000000115L193.40000000000032,495.90000000000117L197.20000000000033,492.90000000000117L196.40000000000032,492.5000000000012L194.90000000000032,491.3000000000012L194.1000000000003,490.9000000000012L195.90000000000032,489.1000000000012L197.30000000000032,486.8000000000012L197.10000000000034,485.0000000000012L194.10000000000034,484.6000000000012L194.50000000000034,487.1000000000012L193.70000000000033,490.0000000000012L192.20000000000033,492.1000000000012L190.00000000000034,491.9000000000012L189.00000000000034,495.1000000000012L186.70000000000033,497.20000000000124L183.80000000000032,498.1000000000012L181.0000000000003,497.20000000000124L178.40000000000032,494.4000000000012L177.70000000000033,491.6000000000012L179.00000000000034,485.70000000000124L179.20000000000033,481.9000000000012L179.60000000000034,480.4000000000012L181.00000000000034,478.4000000000012L186.20000000000033,472.1000000000012L187.10000000000034,470.0000000000012L188.00000000000034,470.6000000000012L190.30000000000035,471.70000000000124L191.10000000000036,472.20000000000124L190.80000000000035,471.50000000000125L190.00000000000034,469.00000000000125L195.20000000000033,468.00000000000125L195.40000000000032,471.00000000000125L196.5000000000003,473.9000000000012L198.2000000000003,475.6000000000012L200.3000000000003,475.20000000000124L199.2000000000003,471.70000000000124L198.9000000000003,467.9000000000012L198.3000000000003,464.8000000000012L196.1000000000003,463.8000000000012L196.90000000000032,461.7000000000012L200.1000000000003,447.60000000000116L200.3000000000003,445.10000000000116L197.1000000000003,449.80000000000115L195.7000000000003,452.80000000000115L194.6000000000003,459.10000000000116L193.1000000000003,462.90000000000117L191.1000000000003,465.40000000000117L189.1000000000003,464.80000000000115L188.0000000000003,464.80000000000115L186.6000000000003,466.80000000000115L183.90000000000032,467.60000000000116L180.90000000000032,468.00000000000114L178.0000000000003,469.00000000000114L176.40000000000032,470.30000000000115L175.90000000000032,471.60000000000116L175.70000000000033,472.90000000000117L174.90000000000032,474.2000000000012L174.1000000000003,475.0000000000012L172.40000000000032,476.0000000000012L171.5000000000003,476.8000000000012L170.0000000000003,479.6000000000012L168.90000000000032,480.6000000000012L167.40000000000032,479.9000000000012L166.90000000000032,478.4000000000012L166.90000000000032,476.50000000000125L166.6000000000003,474.9000000000012L165.3000000000003,474.20000000000124L163.4000000000003,472.9000000000012L162.60000000000028,469.9000000000012L162.80000000000027,466.70000000000124L163.80000000000027,464.80000000000126L162.90000000000026,462.70000000000124L162.30000000000027,460.4000000000012L161.80000000000027,455.50000000000125L162.00000000000026,452.9000000000012L162.50000000000026,451.4000000000012L163.40000000000026,450.4000000000012L166.80000000000027,447.70000000000124L168.50000000000026,447.00000000000125L170.40000000000026,446.9000000000012L174.70000000000027,447.4000000000012L176.80000000000027,448.1000000000012L178.20000000000027,449.3000000000012L178.00000000000028,451.3000000000012L180.10000000000028,449.4000000000012L181.70000000000027,447.20000000000124L183.80000000000027,446.00000000000125L187.10000000000028,447.20000000000124L187.10000000000028,443.80000000000126L188.20000000000027,442.30000000000126L190.10000000000028,441.4000000000013L192.10000000000028,439.80000000000126L190.30000000000027,440.4000000000013L188.30000000000027,440.9000000000013L186.40000000000026,440.5000000000013L185.00000000000026,438.8000000000013L191.70000000000024,434.7000000000013L194.10000000000025,432.5000000000013L197.90000000000026,427.8000000000013L200.00000000000026,426.0000000000013L204.70000000000024,424.60000000000133L207.00000000000026,421.70000000000135L208.80000000000027,421.00000000000136L210.10000000000028,421.6000000000014L211.20000000000027,422.7000000000014L212.50000000000028,423.4000000000014L213.9000000000003,422.6000000000014L214.8000000000003,421.9000000000014L217.2000000000003,420.8000000000014L218.4000000000003,419.9000000000014L209.10000000000028,419.6000000000014L205.10000000000028,418.1000000000014L205.30000000000027,414.8000000000014L203.00000000000026,416.00000000000136L202.10000000000025,418.20000000000135L202.60000000000025,420.50000000000136L204.20000000000024,422.00000000000136L202.40000000000023,423.1000000000014L200.90000000000023,422.9000000000014L199.40000000000023,422.4000000000014L197.70000000000024,422.0000000000014L196.50000000000026,422.5000000000014L195.90000000000026,423.7000000000014L195.60000000000025,425.1000000000014L195.20000000000024,426.3000000000014L191.40000000000023,433.00000000000136L190.00000000000023,434.6000000000014L188.50000000000023,435.3000000000014L185.30000000000024,436.1000000000014L183.60000000000025,437.2000000000014L182.30000000000024,438.9000000000014L180.40000000000023,442.4000000000014L179.00000000000023,444.0000000000014L175.60000000000022,445.10000000000144L172.50000000000023,444.40000000000146L169.30000000000024,443.30000000000143L165.80000000000024,443.0000000000014L169.20000000000024,436.7000000000014L169.30000000000024,435.6000000000014L171.80000000000024,434.9000000000014L175.90000000000023,430.3000000000014L173.90000000000023,430.9000000000014L172.00000000000023,433.9000000000014L170.40000000000023,434.6000000000014L167.10000000000022,434.7000000000014L165.8000000000002,435.0000000000014L164.8000000000002,435.60000000000144L166.5000000000002,437.70000000000147L166.3000000000002,439.0000000000015L163.8000000000002,442.0000000000015L163.4000000000002,443.1000000000015L163.0000000000002,445.3000000000015L162.3000000000002,446.6000000000015L159.3000000000002,450.0000000000015L158.70000000000022,451.3000000000015L158.00000000000023,455.6000000000015L158.70000000000022,470.0000000000015L157.8000000000002,470.0000000000015L156.9000000000002,440.8000000000015L156.20000000000022,436.4000000000015L153.70000000000022,429.1000000000015L151.00000000000023,423.7000000000015L149.70000000000022,422.00000000000153L147.8000000000002,421.10000000000156L144.0000000000002,420.30000000000155L142.5000000000002,418.90000000000157L141.7000000000002,416.7000000000016L140.5000000000002,408.5000000000016L139.5000000000002,405.90000000000157L138.3000000000002,404.0000000000016L135.5000000000002,401.1000000000016L134.2000000000002,400.4000000000016L133.30000000000018,400.20000000000164L132.6000000000002,399.6000000000016L132.4000000000002,397.6000000000016L132.6000000000002,396.0000000000016L133.30000000000018,393.0000000000016L133.50000000000017,391.3000000000016L132.80000000000018,388.8000000000016L131.00000000000017,386.1000000000016L126.40000000000018,381.4000000000016L115.80000000000018,376.4000000000016L114.20000000000019,374.6000000000016L113.30000000000018,372.6000000000016L108.10000000000018,364.70000000000164L104.20000000000017,354.20000000000164L98.30000000000017,346.00000000000165L94.00000000000017,342.00000000000165L91.50000000000017,340.30000000000166L88.60000000000016,338.9000000000017L85.40000000000016,338.4000000000017L83.00000000000016,337.7000000000017L76.70000000000016,334.4000000000017L75.80000000000015,333.30000000000166L70.90000000000015,333.30000000000166L66.70000000000014,332.80000000000166L63.00000000000014,333.10000000000167L59.700000000000145,335.50000000000165L60.90000000000015,336.9000000000016L62.700000000000145,337.50000000000165L61.60000000000014,339.70000000000164L59.700000000000145,340.6000000000016L60.200000000000145,341.1000000000016L61.10000000000014,342.20000000000164L61.60000000000014,342.70000000000164L60.700000000000145,344.80000000000166L60.200000000000145,345.00000000000165L59.700000000000145,345.9000000000016L57.700000000000145,344.6000000000016L47.800000000000146,332.20000000000164L45.50000000000015,330.1000000000016L69.80000000000015,323.5000000000016L77.00000000000016,317.6000000000016L99.10000000000016,308.20000000000164L104.10000000000016,304.00000000000165L127.60000000000016,275.9000000000016L132.30000000000015,268.9000000000016L142.60000000000016,257.4000000000016L163.10000000000016,220.70000000000164L173.30000000000015,207.00000000000165L192.60000000000016,174.40000000000165L193.30000000000015,172.90000000000165L193.10000000000016,171.30000000000166L192.10000000000016,169.20000000000167L195.50000000000017,163.40000000000165L196.90000000000018,154.90000000000165L197.30000000000018,138.20000000000167L198.2000000000002,136.50000000000168L200.2000000000002,129.70000000000167L202.80000000000018,123.50000000000166L203.40000000000018,113.10000000000166L204.50000000000017,110.00000000000166L206.60000000000016,108.10000000000166L212.10000000000016,106.80000000000166L214.40000000000018,105.30000000000166L215.30000000000018,103.70000000000167L216.00000000000017,101.90000000000167L222.00000000000017,75.90000000000167L222.80000000000018,69.70000000000167L223.90000000000018,66.80000000000166L225.90000000000018,64.00000000000166L228.60000000000016,61.30000000000166L231.80000000000015,59.40000000000166L235.20000000000016,58.70000000000166L240.00000000000017,59.60000000000166L241.70000000000016,59.70000000000166L243.40000000000015,59.40000000000166L244.90000000000015,58.70000000000166L249.20000000000016,55.60000000000166L250.90000000000015,54.80000000000166L252.70000000000016,54.50000000000166L254.50000000000017,54.90000000000166L255.90000000000018,55.70000000000166L257.00000000000017,56.80000000000166L258.8000000000002,59.50000000000166L261.3000000000002,62.200000000001666L264.3000000000002,63.600000000001664L267.6000000000002,64.00000000000166L271.1000000000002,63.50000000000166L272.2000000000002,62.80000000000166L273.2000000000002,62.20000000000166L274.30000000000024,62.000000000001656L275.60000000000025,62.30000000000165L277.5000000000002,63.10000000000165L278.4000000000002,63.20000000000165L279.5000000000002,63.00000000000165L285.30000000000024,60.300000000001646L287.40000000000026,60.10000000000164L292.60000000000025,61.300000000001646L293.80000000000024,61.300000000001646L297.5000000000002,60.700000000001644L299.80000000000024,60.800000000001646L306.5000000000002,63.00000000000165L311.30000000000024,63.300000000001646L312.5000000000002,63.700000000001644L316.0000000000002,65.30000000000165L318.30000000000024,65.90000000000164L320.60000000000025,65.80000000000165L322.80000000000024,65.10000000000164L324.80000000000024,63.700000000001644L328.10000000000025,60.700000000001644L329.80000000000024,59.60000000000164L332.10000000000025,59.300000000001646L338.40000000000026,60.60000000000164L340.60000000000025,60.40000000000164L342.40000000000026,59.50000000000164L343.80000000000024,58.200000000001644L347.40000000000026,53.00000000000164L349.2000000000003,51.40000000000164L351.3000000000003,50.40000000000164L353.6000000000003,50.60000000000164L355.0000000000003,51.700000000001644L355.8000000000003,53.300000000001646L356.8000000000003,54.700000000001644L358.6000000000003,55.50000000000164L360.8000000000003,55.50000000000164L362.9000000000003,55.00000000000164L369.1000000000003,52.30000000000164L371.4000000000003,51.80000000000164L376.1000000000003,51.70000000000164L383.1000000000003,52.80000000000164L385.5000000000003,52.70000000000164L401.40000000000026,50.20000000000164L404.5000000000003,49.000000000001634L405.40000000000026,48.40000000000163L406.10000000000025,47.500000000001634L406.10000000000025,46.40000000000163L405.60000000000025,45.40000000000163L403.2000000000003,43.000000000001634L402.40000000000026,41.000000000001634L402.7000000000003,39.000000000001634L403.90000000000026,37.500000000001634L406.10000000000025,36.90000000000163L408.2000000000003,37.500000000001634L409.5000000000003,39.000000000001634L410.7000000000003,40.80000000000163L412.2000000000003,42.30000000000163L413.3000000000003,42.60000000000163L414.4000000000003,42.50000000000163L415.4000000000003,42.10000000000163L416.3000000000003,41.400000000001626L417.1000000000003,40.400000000001626L417.4000000000003,39.400000000001626L417.9000000000003,37.300000000001624L418.8000000000003,35.800000000001624L420.3000000000003,34.800000000001624L423.6000000000003,33.400000000001626L425.3000000000003,34.300000000001624L427.2000000000003,36.400000000001626L427.40000000000026,36.70000000000162L428.5000000000003,38.900000000001626L430.0000000000003,40.800000000001624L432.7000000000003,41.300000000001624L437.2000000000003,40.20000000000162L462.5000000000003,42.00000000000162L464.2000000000003,41.80000000000162L469.10000000000025,40.50000000000162L470.60000000000025,40.50000000000162L471.90000000000026,40.80000000000162L476.10000000000025,42.80000000000162L477.7000000000003,43.100000000001614L479.3000000000003,43.00000000000161L485.5000000000003,41.30000000000161L487.1000000000003,41.20000000000161L493.1000000000003,42.500000000001606L494.70000000000033,42.500000000001606L496.20000000000033,42.3000000000016L497.80000000000035,41.900000000001604L499.20000000000033,41.2000000000016L503.1000000000003,38.900000000001604L504.5000000000003,38.3000000000016L507.40000000000026,38.2000000000016L516.8000000000003,41.900000000001604L517.9000000000003,42.7000000000016L518.5000000000003,43.8000000000016L518.5000000000003,45.500000000001606L517.7000000000004,48.400000000001604L517.9000000000004,49.60000000000161L519.3000000000004,50.20000000000161L525.0000000000005,49.70000000000161L526.4000000000004,50.40000000000161L526.9000000000004,51.600000000001614L527.1000000000005,54.40000000000161L527.9000000000004,55.600000000001614L529.4000000000004,56.30000000000162L533.0000000000005,56.50000000000162L534.6000000000005,56.80000000000162L535.8000000000005,57.50000000000162L538.3000000000005,60.90000000000162L539.4000000000005,61.80000000000162L542.9000000000005,64.30000000000162L547.9000000000005,70.20000000000162L556.7000000000005,78.20000000000162L561.6000000000005,81.10000000000163L562.6000000000005,82.00000000000163L565.1000000000005,85.10000000000163L566.5000000000005,86.00000000000163L569.4000000000004,87.10000000000163L570.7000000000004,87.90000000000163L571.6000000000004,88.90000000000163L571.7000000000004,90.00000000000162L570.8000000000004,92.30000000000162L570.5000000000005,93.60000000000161L570.8000000000004,94.70000000000161L572.3000000000004,96.60000000000161L572.9000000000004,97.90000000000161L573.0000000000005,99.20000000000161L572.2000000000005,102.0000000000016L572.8000000000005,104.5000000000016L575.3000000000005,105.8000000000016L581.1000000000005,107.5000000000016L582.3000000000005,108.3000000000016L584.6000000000005,110.0000000000016L585.6000000000005,111.1000000000016L586.3000000000005,112.3000000000016L587.6000000000005,116.5000000000016L588.3000000000005,118.0000000000016L589.2000000000005,119.3000000000016L590.4000000000005,120.4000000000016L591.7000000000005,121.3000000000016L592.9000000000005,121.6000000000016L594.1000000000006,121.5000000000016L595.3000000000006,121.1000000000016L597.7000000000006,119.7000000000016L600.1000000000006,117.80000000000159L601.1000000000006,116.7000000000016L603.7000000000006,112.9000000000016L604.8000000000006,111.8000000000016L606.1000000000006,111.1000000000016L607.4000000000005,110.7000000000016L608.8000000000005,110.6000000000016L610.2000000000005,110.8000000000016L609.9000000000005,112.8000000000016L609.0000000000006,115.3000000000016L608.4000000000005,117.4000000000016L608.8000000000005,119.00000000000159L609.5000000000006,119.4000000000016L611.1000000000006,120.00000000000159L611.7000000000006,120.50000000000159L611.9000000000007,120.80000000000159L612.1000000000007,121.30000000000159L612.3000000000008,121.50000000000159L612.7000000000007,121.80000000000159L613.6000000000007,122.10000000000159L614.0000000000007,122.30000000000159L615.0000000000007,123.2000000000016L615.3000000000006,123.4000000000016L616.3000000000006,123.6000000000016L617.3000000000006,123.3000000000016L621.3000000000006,121.1000000000016L622.2000000000006,120.9000000000016L625.0000000000006,120.9000000000016L625.5000000000006,120.9000000000016L626.6000000000006,120.50000000000159L631.1000000000006,118.60000000000159L638.8000000000006,116.90000000000158L640.8000000000006,116.10000000000159L641.7000000000006,115.80000000000159L642.5000000000006,115.80000000000159L643.5000000000006,116.00000000000159L643.8000000000005,118.10000000000159L641.3000000000005,122.80000000000159L641.0000000000006,125.2000000000016L642.5000000000006,126.2000000000016L647.9000000000005,124.1000000000016L650.1000000000006,124.2000000000016L650.8000000000006,125.00000000000159L652.0000000000007,127.10000000000159L652.8000000000006,127.90000000000158L656.8000000000006,130.70000000000158L657.7000000000006,131.80000000000157L658.1000000000006,133.00000000000156L658.2000000000006,135.70000000000155L658.4000000000007,136.90000000000154L660.5000000000007,142.00000000000153L661.4000000000007,143.60000000000153L662.5000000000007,145.10000000000153L663.8000000000006,146.40000000000154L667.6000000000006,149.30000000000155L668.4000000000005,150.50000000000153L668.8000000000005,151.80000000000155L668.7000000000005,153.10000000000156L668.1000000000005,155.70000000000155L668.1000000000005,156.90000000000154L668.4000000000004,158.00000000000153L669.0000000000005,158.90000000000154L671.7000000000005,162.00000000000153L673.0000000000005,164.40000000000154L673.7000000000005,167.00000000000153L673.8000000000005,170.00000000000153L673.5000000000006,171.30000000000155L673.0000000000006,172.60000000000156L672.6000000000006,173.90000000000157L672.8000000000006,175.20000000000158L673.6000000000006,176.20000000000158L674.6000000000006,177.0000000000016L676.9000000000005,178.4000000000016L678.1000000000006,179.3000000000016L679.1000000000006,180.4000000000016L680.7000000000006,182.8000000000016L681.4000000000007,184.10000000000161L681.5000000000007,185.2000000000016L681.3000000000006,186.4000000000016L679.1000000000006,189.9000000000016L678.5000000000006,191.1000000000016L678.4000000000005,192.5000000000016L678.6000000000006,193.8000000000016L680.0000000000006,197.60000000000161L682.2000000000006,197.50000000000162L686.6000000000006,196.7000000000016L688.8000000000006,196.9000000000016L689.8000000000006,197.3000000000016L692.6000000000006,199.3000000000016L693.6000000000006,199.7000000000016L697.0000000000006,200.60000000000161L698.9000000000005,201.7000000000016L700.5000000000006,203.2000000000016L701.5000000000006,205.00000000000162L701.9000000000005,207.10000000000161L701.0000000000006,212.90000000000163L701.1000000000006,214.20000000000164L701.3000000000006,215.50000000000165L701.8000000000006,217.00000000000165L702.7000000000006,217.60000000000164L707.2000000000006,218.80000000000163L709.3000000000006,218.50000000000162L711.6000000000006,217.10000000000161L713.5000000000006,215.50000000000162L715.7000000000006,214.30000000000163L718.0000000000006,214.00000000000162L720.3000000000005,215.10000000000161L721.3000000000005,216.2000000000016L721.7000000000005,217.60000000000161L722.3000000000005,221.8000000000016L722.8000000000005,222.8000000000016L724.3000000000005,224.8000000000016L725.0000000000006,226.0000000000016L725.2000000000006,227.1000000000016L725.3000000000006,232.30000000000157L725.8000000000006,234.80000000000157L727.0000000000007,237.1000000000016L728.8000000000006,239.1000000000016L737.6000000000006,245.1000000000016L739.5000000000006,247.1000000000016L740.5000000000006,249.6000000000016L739.7000000000006,251.70000000000158L737.2000000000006,252.1000000000016L732.2000000000006,251.6000000000016L730.7000000000006,252.70000000000158L731.6000000000006,254.6000000000016L734.9000000000005,258.0000000000016L736.2000000000005,259.1000000000016L737.5000000000005,259.5000000000016L738.9000000000004,259.6000000000016L742.1000000000005,258.9000000000016L743.7000000000005,258.9000000000016L745.1000000000005,259.3000000000016L746.5000000000005,260.3000000000016L747.3000000000004,261.3000000000016L747.6000000000004,262.5000000000016L747.7000000000004,263.7000000000016L746.9000000000004,267.60000000000156L747.0000000000005,268.80000000000155L747.4000000000004,270.2000000000015L747.6000000000005,270.6000000000015L751.3000000000005,271.8000000000015L752.5000000000006,273.0000000000015L756.8000000000005,277.20000000000147L760.8000000000005,278.90000000000146L760.9000000000005,278.90000000000146L762.4000000000005,278.70000000000147L767.1000000000006,277.20000000000147L769.4000000000005,276.90000000000146L770.7000000000005,277.40000000000146L771.9000000000005,278.5000000000015L773.8000000000005,281.0000000000015L781.9000000000005,285.8000000000015L784.5000000000006,287.8000000000015L786.1000000000006,288.70000000000147L789.5000000000006,289.5000000000015L791.1000000000006,290.40000000000146L792.4000000000005,291.80000000000143L793.1000000000006,293.30000000000143L796.5000000000006,305.5000000000014L796.6000000000006,307.10000000000144L798.6000000000006,308.40000000000146L803.6000000000006,314.30000000000143L806.2000000000006,316.5000000000014L815.5000000000006,320.9000000000014L823.7000000000006,327.4000000000014Z" class="sm_state sm_state_SN" opacity="1" stroke-opacity="1" stroke-width="1.8750000000000002" stroke-linejoin="round" transform="matrix(0.4076,0,0,0.4076,0,0)" style="-webkit-tap-highlight-color: rgba(0, 0, 0, 0); opacity: 1; cursor: pointer; stroke-opacity: 1; stroke-linejoin: round; fill-opacity: 1;" fill-opacity="1"/><text x="204.0038" y="149.793" text-anchor="middle" font="10px &quot;Arial&quot;" stroke="none" fill="#ffffff" style="-webkit-tap-highlight-color: rgba(0, 0, 0, 0); text-anchor: middle; font: bold 16px Arial; cursor: pointer; opacity: 1;" stroke-width="0" font-size="16px" font-weight="bold" font-family="Arial" opacity="1" transform="matrix(0.4076,0,0,0.4076,120.8519,88.7374)" class="sm_label sm_label_SN"><tspan style="-webkit-tap-highlight-color: rgba(0, 0, 0, 0);" dy="6.1336515121460025">Senegal</tspan></text><rect x="10.895868306297995" y="124.11937676751617" width="25" height="25" r="0" rx="0" ry="0" fill="#44a0e0" stroke="#ffffff" stroke-width="2.5" opacity="0.8" transform="matrix(0.4076,0,0,0.4076,13.8597,80.9333)" class="sm_location sm_location_0" style="-webkit-tap-highlight-color: rgba(0, 0, 0, 0); opacity: 0.8; cursor: pointer;"/><desc style="-webkit-tap-highlight-color: rgba(0, 0, 0, 0);">Created with Raphal 2.1.0</desc><defs style="-webkit-tap-highlight-color: rgba(0, 0, 0, 0);"/></svg>